PathFileType	4	(X/Y/Z)	c:/Users/goper/Files/vsCode/490R/osim_files/C12/C12_SSWS_04.trc
DataRate	CameraRate	NumFrames	NumMarkers	Units                	OrigDataRate	OrigDataStartFrame	OrigNumFrames
120.00	120.00	9	36	mm	120.0	457	1216
                Frame#	Time	LPSIS			LASIS			LTH1			LTH2			LTH3			LTH4			LLFE			LMFE			LSH1			LSH2			LSH3			LSH4			LLMAL			LMMAL			LCAL			LMTP5			LTOE			LMTP1			RPSIS			RASIS			RTH1			RTH2			RTH3			RTH4			RLFE			RMFE			RSH1			RSH2			RSH3			RSH4			RLMAL			RMMAL			RCAL			RMTP1			RTOE			RMTP5		
		X1	Y1	Z1	X2	Y2	Z2	X3	Y3	Z3	X4	Y4	Z4	X5	Y5	Z5	X6	Y6	Z6	X7	Y7	Z7	X8	Y8	Z8	X9	Y9	Z9	X10	Y10	Z10	X11	Y11	Z11	X12	Y12	Z12	X13	Y13	Z13	X14	Y14	Z14	X15	Y15	Z15	X16	Y16	Z16	X17	Y17	Z17	X18	Y18	Z18	X19	Y19	Z19	X20	Y20	Z20	X21	Y21	Z21	X22	Y22	Z22	X23	Y23	Z23	X24	Y24	Z24	X25	Y25	Z25	X26	Y26	Z26	X27	Y27	Z27	X28	Y28	Z28	X29	Y29	Z29	X30	Y30	Z30	X31	Y31	Z31	X32	Y32	Z32	X33	Y33	Z33	X34	Y34	Z34	X35	Y35	Z35	X36	Y36	Z36

457	3.80000	1293.31030	1047.19604	405.33801	1110.66919	1011.46179	454.73682	0.00000	0.00000	0.00000	1110.37366	689.22040	497.99002	1069.12134	749.18103	498.68900	1060.02661	707.16632	493.22327	1028.29822	533.26672	440.02328	1040.78613	532.92407	313.24243	1075.17188	431.29373	459.57932	1070.83154	383.77405	464.38211	1016.32550	430.81332	445.77444	1021.81281	383.26630	449.54407	1059.65979	93.58843	407.92496	1052.26282	102.53924	328.73132	1128.47925	71.21529	370.33810	926.35223	39.01624	425.86118	878.70258	73.30167	355.81384	910.09985	41.56958	315.64450	1308.87463	1041.10950	291.26224	1135.97595	1005.17023	201.82591	1264.96045	721.39948	146.97301	1263.49304	676.22687	151.11440	1201.16736	715.83386	144.36223	0.00000	0.00000	0.00000	1281.22961	500.84439	166.87904	1249.74597	483.46402	300.35452	1350.79150	428.38324	153.47913	1389.57776	410.18808	149.70815	1385.64722	480.37976	161.05223	1418.66821	453.02820	156.15154	1634.05811	259.33810	203.52956	1605.06213	244.45268	284.77368	1672.20349	318.41486	250.73271	1650.08093	107.56719	304.88531	1631.06946	68.18336	269.43182	1679.96655	92.17129	201.30910
458	3.80833	1282.49121	1048.33887	405.94351	1099.64319	1012.50952	456.03622	0.00000	0.00000	0.00000	1103.76416	689.37848	498.50696	1061.59961	748.76111	499.97684	1052.43811	706.76306	494.15329	1023.11890	532.92047	440.78070	1035.65564	532.85370	316.23010	1072.14661	431.49155	459.63782	1068.09985	383.86099	464.38104	1012.97778	430.30881	446.81296	1018.72839	382.91397	450.31415	1059.74402	93.81840	407.95618	1051.87500	102.66365	328.79773	1128.27344	71.58617	370.38925	926.17114	38.77510	425.93069	878.36932	72.57284	355.82486	909.95178	41.16705	315.57275	1298.33667	1041.90210	291.46649	1124.79773	1006.81824	202.82230	1249.05762	722.21820	146.75166	1246.55664	677.06842	150.45129	1185.31067	718.04810	143.38643	0.00000	0.00000	0.00000	1259.26196	501.32214	165.08694	1227.61755	484.59473	298.93335	1327.98584	428.97263	151.80765	1368.12085	411.39804	146.19685	1362.41760	481.24738	159.45512	1395.74036	454.22409	154.42740	1613.29285	264.35126	204.51762	1583.90442	248.37927	283.69266	1650.67419	323.85690	251.63025	1630.90027	113.29077	302.73419	1612.45203	73.23856	266.71024	1663.64490	99.02136	199.82356
459	3.81667	1271.81189	1049.52295	406.72842	1089.77515	1013.81891	457.02057	0.00000	0.00000	0.00000	1097.65857	689.65271	499.02145	1054.35864	748.45264	500.90482	1046.24463	706.12134	495.60046	1018.44250	532.46368	441.58450	1030.30811	532.84839	316.41898	1069.18616	431.82727	459.41644	1065.81226	384.04773	464.26099	1009.91174	430.07864	447.67795	1016.21844	382.60370	451.14062	1059.25867	93.82007	407.87585	1051.46973	102.81157	328.88235	1128.01355	71.98579	370.35712	926.00360	38.60863	426.01324	877.99408	72.04600	355.85953	909.56464	40.63954	315.72345	1287.80017	1042.48865	292.17053	1113.70068	1008.75220	203.57458	1233.26294	723.29785	146.56938	1229.73938	678.20581	149.81821	1169.54333	720.50281	142.47337	0.00000	0.00000	0.00000	1237.33374	502.41168	163.23322	1204.64868	485.09079	297.16068	1305.16687	429.90106	150.36308	1345.41650	412.54865	144.61534	1339.72693	482.55933	157.54091	1373.15894	455.78806	152.13814	1592.87219	268.77625	204.19510	1563.03613	252.80145	283.18839	1629.48706	328.26196	252.54610	1609.41663	117.49382	300.84747	1589.82043	78.08674	264.63379	1642.41663	103.82404	199.11868
460	3.82500	1261.33154	1050.88403	407.63980	1080.21301	1015.04156	457.43726	1108.40503	731.71344	504.40738	1091.96851	689.96393	499.35498	0.00000	0.00000	0.00000	1039.13818	706.13574	496.50589	1013.25787	532.53552	442.07220	1025.17505	533.13373	317.28296	1066.51685	432.05429	459.18231	1063.81274	384.28214	464.08228	1006.91150	429.66696	448.50217	1014.03375	382.34079	451.95087	1058.90039	93.98791	407.82138	1051.09021	103.04593	328.94971	1126.00342	71.44751	370.54550	925.91888	38.45500	426.10266	877.78131	71.73071	355.91452	909.36670	40.43657	315.68509	1277.81934	1043.87061	292.80359	1103.32031	1010.80975	204.20865	1217.69836	724.75183	146.32877	1213.11169	679.67535	149.20619	1153.94360	723.26508	141.57489	0.00000	0.00000	0.00000	1215.22595	503.76492	161.44182	1182.68604	487.04254	295.52890	1282.47534	431.15594	149.08678	1322.26880	413.78500	143.52153	1316.47510	483.83856	156.11862	1350.39832	457.45850	150.41678	1572.11694	273.23831	203.91946	1542.23315	257.08713	283.06049	1609.58618	332.38541	252.94394	1586.31531	121.08073	298.99405	1567.97290	81.89451	262.89490	1619.58484	107.96960	197.36807
461	3.83333	1250.98438	1052.31494	408.59985	1069.68005	1016.52917	457.95612	1100.80811	732.92169	504.42068	1085.93079	690.98822	499.71829	0.00000	0.00000	0.00000	1033.08850	706.55005	497.65152	1008.33362	532.39185	442.52899	1021.84448	533.27252	317.98145	1064.25122	432.48383	459.09753	1062.06250	384.56848	463.99588	1004.52057	429.58466	449.33542	1011.93933	382.12946	452.66510	1058.51831	94.20506	407.74393	1050.81860	103.29374	329.02237	1125.69324	71.94621	370.50510	925.81451	38.32012	426.19797	877.48950	71.33926	355.99277	909.65454	40.49411	315.13980	1267.71960	1045.03015	293.96964	1093.37744	1013.08044	204.78333	1202.19104	726.27826	146.04211	1196.54065	681.33124	148.61124	1140.20520	727.84955	137.64255	0.00000	0.00000	0.00000	1193.05090	505.35468	159.63809	1161.11328	488.80121	294.14584	1259.92017	432.71716	147.95451	1299.90942	415.55310	142.24011	1293.84277	485.71225	154.62544	1327.40125	459.22336	149.50182	1550.79700	277.25894	203.80771	1519.83716	260.71667	282.46362	1589.36926	335.15515	253.51421	1560.84167	123.97543	297.73093	1542.47168	85.71927	260.69669	1594.72339	111.25236	195.55916
462	3.84167	1240.59058	1053.96411	409.62915	1058.55676	1018.16315	458.62912	1094.21887	733.75232	504.88782	1080.14062	692.19379	499.75714	0.00000	0.00000	0.00000	1027.03638	706.88965	498.56024	1004.02600	532.11523	443.12601	1017.59558	533.24670	318.58783	1062.01416	432.79465	459.05725	1060.29907	384.96283	463.94595	1001.91644	429.38367	450.12866	1010.00488	382.08780	453.40808	1058.09998	94.47663	407.61417	1050.45227	103.54052	329.08832	1125.88306	72.77002	370.36569	925.71973	38.15129	426.27600	877.15778	70.86829	356.06787	909.01202	40.12900	315.60724	1257.66541	1046.48596	295.19034	1083.80164	1015.47705	205.23087	1186.67615	727.97046	145.69493	1179.97937	683.12329	147.91013	1124.63354	730.74377	136.92264	0.00000	0.00000	0.00000	1170.89453	507.17325	157.92805	1139.13354	490.88748	292.48990	1237.74280	434.66974	146.64706	1277.83704	417.66315	141.08545	1271.36755	487.80927	153.26485	1305.07471	461.40952	148.37149	1528.86353	280.63553	203.82013	1498.04871	264.21677	282.43228	1569.24365	337.07919	253.94923	1535.87817	126.10336	296.21173	1515.08655	89.08562	258.67056	1567.97742	113.79058	193.84557
463	3.85000	1230.29077	1055.76782	410.58310	1047.42444	1019.75439	459.04047	1087.00085	734.92682	505.27576	1075.12488	693.77942	500.20996	0.00000	0.00000	0.00000	1021.04230	706.81866	499.35870	999.87476	532.10699	443.58804	1013.27081	532.83734	319.34912	1059.62280	433.31430	459.10303	1058.50378	385.47095	464.02493	999.48083	429.33539	450.88992	1008.16040	382.11722	454.07803	1057.91418	94.78606	407.55545	1049.98877	103.78714	329.18307	1125.57288	73.27139	370.27338	925.65729	38.01572	426.33923	876.68848	70.34496	356.03293	909.13055	40.37741	315.24554	1247.60266	1048.21729	296.43613	1074.54395	1017.88574	205.73816	1171.14478	729.81555	145.05899	1163.16699	684.92719	147.00140	1108.94922	733.81873	136.21263	0.00000	0.00000	0.00000	1148.98523	509.26572	156.38966	1117.47693	493.33109	291.22791	1215.66187	436.95041	145.28461	1255.72290	419.92487	140.10898	1249.08984	490.11124	152.05978	1282.89868	463.74786	147.49478	1505.99121	282.88251	203.87891	1475.31018	266.88718	282.13235	1549.36035	338.05054	254.20529	1509.21655	127.28736	294.44925	1487.08643	91.79252	257.16132	1540.10571	115.38146	191.92162
464	3.85833	1219.74109	1057.68286	411.56091	1040.01892	1021.06952	459.02173	1080.46228	736.02759	505.46530	1068.84509	694.77173	500.28024	0.00000	0.00000	0.00000	1014.48560	707.22266	500.16898	996.06946	532.10242	444.16638	1008.56567	532.09009	319.93408	1057.66516	433.96796	459.44501	1056.42432	385.97189	464.25748	997.19202	429.48807	451.56018	1005.81281	382.25043	454.59161	1057.43921	95.10938	407.47318	1049.55542	104.10417	329.26205	1126.61157	74.48302	370.03134	925.49402	37.88278	426.39334	876.49249	69.99557	356.10989	909.01068	40.20326	315.21573	1237.48486	1050.20850	297.57385	1059.75464	1021.34644	205.30959	1155.35718	731.76184	144.26575	1146.56519	687.12268	145.96402	1093.12317	736.93402	135.43768	0.00000	0.00000	0.00000	1127.21008	511.49646	154.97289	1095.85876	495.89011	290.09164	1193.69360	439.53311	143.96741	1233.80823	422.52002	139.21323	1227.01880	492.72366	151.07315	1260.84338	466.32986	146.72470	1484.03442	284.96429	203.34872	1452.13953	268.91739	281.78818	1528.95337	337.88757	254.42583	1482.06421	128.07199	292.74661	1457.52417	93.92419	255.04391	1511.35974	116.32892	189.94495
465	3.86667	1209.33264	1059.78577	412.35049	1029.87085	1022.74756	459.13504	1074.25024	737.15961	505.96811	1062.67810	695.81396	500.31760	0.00000	0.00000	0.00000	1008.82898	707.67670	500.75232	992.19696	532.11981	444.74182	999.81677	532.40686	319.61295	1054.56018	434.41599	459.69693	1054.17163	386.48373	464.64832	994.46619	429.46002	452.03992	1003.75665	382.36304	455.12674	1057.11768	95.50278	407.52869	1049.22876	104.45458	329.41388	1124.56506	74.07713	370.26813	925.41943	37.75803	426.48392	876.09698	69.61694	356.09149	908.63403	39.75846	315.48602	1227.29089	1052.34399	298.58417	1049.19165	1024.15247	205.49480	1139.36523	733.75238	143.37242	1129.62085	689.33008	144.80354	1077.27551	740.29218	134.65878	0.00000	0.00000	0.00000	1105.66174	514.12073	153.71008	1074.16272	498.96732	288.98325	1171.74402	442.40518	142.78413	1211.87415	425.32809	138.32460	1205.23767	495.48755	150.25130	1239.05017	469.06287	146.13016	1459.93860	285.34808	203.76772	1428.66479	270.23859	281.44681	1508.09143	336.48416	254.61655	1454.01050	128.14149	290.95374	1427.62415	95.54562	253.04088	1482.01135	116.46967	187.76872
